<?xml version="1.0" standalone="no"?>
<!DOCTYPE svg PUBLIC "-//W3C//DTD SVG 20010904//EN"
 "http://www.w3.org/TR/2001/REC-SVG-20010904/DTD/svg10.dtd">
<svg version="1.0" xmlns="http://www.w3.org/2000/svg"
 width="325.000000pt" height="260.000000pt" viewBox="0 0 325.000000 260.000000"
 preserveAspectRatio="xMidYMid meet">

<g transform="translate(0.000000,260.000000) scale(0.100000,-0.100000)"
fill="#000000" stroke="none">
<path d="M1273 1835 c-78 -21 -130 -51 -185 -106 -47 -47 -108 -157 -108 -195
0 -14 -8 -16 -56 -11 -31 3 -58 8 -60 10 -3 2 9 41 26 86 16 45 30 85 30 87 0
3 -19 4 -41 2 l-41 -3 -30 -82 c-16 -46 -34 -83 -39 -83 -6 0 -24 7 -40 16
-18 9 -42 13 -57 9 -26 -5 -28 -2 -56 75 -17 44 -32 77 -35 74 -3 -3 -18 -36
-32 -72 l-25 -67 -67 3 c-37 2 -67 -1 -67 -6 0 -21 43 -62 65 -62 13 0 27 -4
30 -10 6 -10 -26 -120 -35 -120 -3 0 -32 73 -65 163 l-60 162 -44 3 c-39 3
-43 1 -36 -15 28 -67 141 -370 168 -450 12 -35 24 -63 27 -63 3 0 23 46 44
103 74 190 84 209 102 199 9 -5 42 -73 74 -151 31 -78 59 -144 62 -146 3 -3
12 14 21 37 77 214 79 219 98 213 11 -3 27 -7 37 -10 9 -3 22 -15 27 -27 6
-13 26 -31 45 -40 24 -13 41 -32 56 -65 54 -121 151 -200 279 -228 62 -14 87
-15 138 -6 87 15 175 61 232 122 45 48 48 50 76 38 18 -7 50 -9 79 -6 35 4 49
3 47 -5 -1 -7 20 -15 52 -20 58 -9 110 2 131 28 18 20 48 17 62 -6 10 -15 24
-20 61 -20 l47 0 -86 115 c-48 64 -85 117 -83 118 2 1 21 10 41 21 49 25 72
74 65 137 -7 54 -18 76 -55 104 -22 16 -43 19 -132 20 l-105 0 0 -173 c0 -168
-1 -173 -20 -168 -11 3 -32 6 -46 6 -27 0 -27 0 -31 93 -3 72 -10 104 -30 150
-53 114 -167 204 -287 227 -69 13 -104 12 -168 -5z m1 -97 c-6 -10 -4 -10 7
-3 16 12 161 12 197 1 30 -10 28 -29 -7 -44 -16 -7 -58 -43 -95 -80 l-66 -67
0 58 c0 66 -9 71 -51 26 -25 -27 -29 -39 -29 -86 l0 -56 -72 8 c-87 8 -91 10
-77 37 9 16 8 19 -3 12 -8 -5 -6 1 4 16 10 14 25 40 34 58 9 17 19 32 23 32 3
0 20 13 36 28 24 22 90 68 103 71 2 1 0 -5 -4 -11z m347 -55 c33 -20 50 -50
22 -38 -34 14 -100 18 -107 6 -5 -7 9 -11 44 -11 63 0 85 -11 99 -50 15 -45 3
-67 -96 -160 -116 -110 -177 -144 -256 -142 -68 2 -108 18 -122 49 -9 21 -45
39 -132 64 -37 11 -45 10 -61 -4 -36 -33 -102 -12 -102 32 0 14 -17 21 -82 35
l-82 18 -19 -26 c-32 -45 -107 -25 -107 29 0 19 -9 23 -100 39 -55 10 -100 22
-100 27 0 5 10 7 23 4 48 -11 200 -24 211 -18 6 4 3 -3 -6 -14 -33 -36 -16
-73 33 -73 40 0 53 45 22 76 -17 17 -17 18 2 10 46 -18 78 -24 167 -31 l95 -7
-24 -25 c-23 -22 -24 -26 -10 -46 17 -26 43 -33 62 -17 18 15 20 70 3 70 -6 0
-9 2 -7 5 3 2 59 -2 124 -9 66 -7 121 -12 123 -11 2 2 6 35 9 74 8 93 23 102
23 14 l0 -68 89 90 c120 121 191 150 262 108z m421 -70 c11 -10 18 -30 18 -54
0 -46 -27 -69 -82 -69 l-38 0 0 76 0 77 42 -7 c23 -4 50 -14 60 -23z m-377
-188 c0 -17 -5 -25 -17 -25 -21 0 -24 20 -6 38 18 18 23 15 23 -13z m314 -50
l32 -45 -40 0 -41 0 0 45 c0 25 4 45 8 45 5 0 23 -20 41 -45z m-1255 10 c-4
-8 -8 -15 -10 -15 -2 0 -4 7 -4 15 0 8 4 15 10 15 5 0 7 -7 4 -15z m416 -30
c14 -4 45 -27 68 -51 44 -44 44 -44 117 -44 41 0 85 4 99 10 15 5 62 13 106
16 62 5 80 4 80 -6 0 -14 -46 -60 -61 -60 -5 0 -9 -4 -9 -9 0 -17 -94 -58
-123 -54 -15 2 -27 -1 -27 -6 0 -7 -8 -7 -24 -1 -13 5 -37 8 -52 8 -37 -1
-112 34 -143 67 -13 14 -27 25 -33 25 -5 0 -6 5 -3 10 3 6 -1 13 -9 16 -9 3
-14 10 -11 14 3 4 -1 10 -9 13 -7 3 -18 19 -24 35 -9 28 -9 30 11 28 12 -2 33
-6 47 -11z"/>
<path d="M1383 1568 c-47 -40 -83 -77 -83 -85 0 -3 19 12 43 33 23 22 56 49
72 61 17 12 25 23 18 23 -7 0 -29 -15 -50 -32z"/>
<path d="M1644 1592 c13 -22 -14 -50 -101 -105 -111 -70 -202 -116 -271 -137
-48 -15 -51 -18 -36 -31 9 -7 46 -15 85 -17 67 -4 69 -3 136 41 37 25 101 79
141 119 62 62 72 77 70 102 -2 16 -9 32 -17 34 -8 3 -11 0 -7 -6z"/>
<path d="M2260 1450 l0 -260 135 0 135 0 0 40 0 40 -95 0 -95 0 0 220 0 220
-40 0 -40 0 0 -260z"/>
<path d="M2600 1450 l0 -263 128 5 c138 6 186 19 236 66 47 44 68 103 68 191
0 118 -38 187 -126 233 -31 16 -66 21 -172 25 l-134 6 0 -263z m266 164 c55
-26 79 -76 79 -166 0 -85 -14 -114 -75 -155 -27 -19 -47 -23 -111 -23 l-79 0
0 180 0 180 76 0 c49 0 88 -6 110 -16z"/>
<path d="M260 868 l0 -153 1380 0 1380 0 0 153 0 152 -1380 0 -1380 0 0 -152z
m705 34 c11 -29 22 -52 25 -52 3 0 14 23 25 51 20 51 31 66 42 55 6 -6 -57
-166 -66 -166 -6 0 -71 149 -71 163 0 5 6 7 13 5 6 -3 21 -28 32 -56z m1030
46 c14 -6 25 -15 25 -19 0 -13 -18 -20 -25 -9 -12 19 -63 11 -79 -12 -23 -32
-20 -61 9 -88 21 -20 30 -22 53 -14 33 12 43 44 13 44 -12 0 -21 5 -21 10 0 6
16 10 35 10 29 0 35 -4 35 -22 0 -35 -38 -68 -79 -68 -20 0 -43 6 -52 13 -50
39 -48 115 4 147 37 23 47 24 82 8z m699 2 c14 -5 26 -16 26 -25 0 -12 -4 -13
-24 -4 -36 17 -72 4 -86 -31 -10 -25 -10 -34 4 -54 19 -30 49 -41 75 -27 26
14 31 14 31 -3 0 -26 -64 -35 -101 -16 -27 15 -51 67 -43 93 8 28 34 57 59 68
27 11 30 11 59 -1z m-2264 -9 c0 -5 -10 -11 -22 -13 -21 -3 -23 -9 -26 -75 -4
-96 -22 -94 -22 2 0 73 -1 75 -25 75 -14 0 -25 5 -25 10 0 6 27 10 60 10 33 0
60 -4 60 -9z m168 -3 c17 -17 15 -48 -4 -69 -15 -16 -14 -20 11 -53 37 -49 10
-48 -32 1 l-32 38 -1 -37 c0 -21 -4 -38 -10 -38 -6 0 -10 35 -10 85 l0 85 33
0 c18 0 38 -5 45 -12z m215 -76 c28 -65 33 -83 20 -80 -9 2 -25 27 -36 57
l-21 54 -24 -57 c-14 -31 -31 -56 -38 -56 -18 0 -18 -2 12 66 14 33 30 70 35
83 5 13 11 22 13 20 2 -2 20 -41 39 -87z m437 78 c0 -5 -16 -10 -35 -10 -28 0
-35 -4 -35 -19 0 -15 8 -21 33 -23 17 -2 32 -7 32 -13 0 -5 -15 -11 -32 -13
-27 -3 -33 -8 -33 -27 0 -19 6 -24 33 -27 49 -5 38 -23 -15 -26 l-48 -3 0 85
0 86 50 0 c28 0 50 -4 50 -10z m120 -60 l0 -70 30 0 c20 0 30 -5 30 -15 0 -11
-12 -15 -45 -15 l-45 0 0 85 c0 69 3 85 15 85 12 0 15 -14 15 -70z m384 -18
c28 -66 32 -82 20 -82 -9 0 -18 8 -20 18 -3 9 -13 35 -23 57 l-18 40 -20 -55
c-12 -32 -28 -56 -37 -58 -15 -3 -16 0 -3 30 41 98 60 138 63 136 1 -2 19 -41
38 -86z m476 78 c0 -5 -16 -10 -35 -10 -28 0 -35 -4 -35 -20 0 -16 7 -20 35
-20 24 0 35 -5 35 -15 0 -10 -11 -15 -35 -15 -31 0 -35 -3 -35 -25 0 -22 4
-25 35 -25 25 0 35 -4 35 -16 0 -12 -10 -14 -47 -12 l-48 3 -3 83 -3 82 51 0
c27 0 50 -4 50 -10z m220 -47 c0 44 3 57 15 57 12 0 15 -16 15 -86 l0 -86 -62
57 -63 57 -3 -56 c-5 -89 -22 -65 -22 31 l0 87 60 -59 60 -59 0 57z m395 27
c9 -16 19 -30 23 -30 4 0 16 14 25 30 10 17 25 30 33 30 11 0 7 -12 -16 -44
-21 -32 -30 -56 -30 -85 0 -30 -4 -41 -15 -41 -11 0 -15 12 -15 46 0 28 -7 56
-18 72 -32 46 -34 52 -18 52 9 0 22 -13 31 -30z"/>
<path d="M547 924 c-16 -16 -7 -44 14 -44 15 0 20 5 17 22 -3 22 -19 33 -31
22z"/>
</g>
</svg>
